PathFileType	3	(X/Y/Z)	RCH0000002 BBF 08.c3d
DataRate	CameraRate	NumFrames	NumMarkers	Units	OrigDataRate	OrigDataStartFrame	OrigNumFrames
100.0	100.0	5	23	mm	100.0	435	516
Frame#	Time	MAN			LASI			RASI			LPAT			LKNE			LANK			LMED			LTOE			RKNE			RANK			RMED			RHEE			RTOE			LHEE			RPAT			RPSI			T2			LPSI			T10			RTHI			LTHI			RTIB			LTIB			
		X1	Y1	Z1	X2	Y2	Z2	X3	Y3	Z3	X4	Y4	Z4	X5	Y5	Z5	X6	Y6	Z6	X7	Y7	Z7	X8	Y8	Z8	X9	Y9	Z9	X10	Y10	Z10	X11	Y11	Z11	X12	Y12	Z12	X13	Y13	Z13	X14	Y14	Z14	X15	Y15	Z15	X16	Y16	Z16	X17	Y17	Z17	X18	Y18	Z18	X19	Y19	Z19	X20	Y20	Z20	X21	Y21	Z21	X22	Y22	Z22	X23	Y23	Z23	

435	4.340	1530.43300	30.87345	959.55691	1495.53994	103.98141	635.63612	1536.04627	-65.15748	655.98045	1501.11355	72.60295	352.46179	1440.51369	123.45239	326.62150	1258.47880	130.66551	129.67514	1270.66571	62.11879	134.98836	1294.81985	98.43525	93.74945	1538.78913	-65.01357	346.56014	1472.05030	-92.29547	82.98279	1443.24509	-28.99698	96.11064	1422.41754	-76.02195	118.60953	1503.84142	-44.99096	74.09740	1245.33250	88.73232	173.07492	1570.25077	-3.91399	384.65950	1416.30481	-34.58982	706.52402	1394.14410	7.13088	968.28402	1400.64524	33.50945	696.15730	1424.74723	14.51198	786.03048	1554.37691	-136.06712	456.10244	1435.25930	185.62250	455.58983	1528.80317	-140.32109	236.42535	1364.20704	188.60309	247.35372	
436	4.350	1539.79172	31.23881	962.90797	1506.46351	102.16466	638.26445	1544.94910	-67.33514	659.47299	1518.06150	72.28046	357.39328	1457.13125	122.44453	330.37070	1277.61000	127.69491	131.29395	1292.21870	59.38400	135.47616	1315.96114	97.55021	95.88019	1538.71675	-68.71599	348.09364	1472.22036	-92.60860	83.61440	1443.84954	-29.34218	97.29223	1422.61285	-76.33515	119.42537	1504.19639	-45.34051	74.52031	1265.24345	84.35468	173.34511	1571.23544	-7.69757	385.39365	1426.00692	-35.06675	710.58062	1403.64078	7.42817	971.12211	1411.08437	33.14395	699.90040	1434.72087	14.42432	789.12978	1557.75882	-139.38966	457.31611	1448.95675	184.48689	459.24259	1527.73240	-142.99861	236.79123	1379.72052	186.42712	251.38778	
437	4.360	1549.12458	31.60197	966.20564	1517.23115	100.43984	641.13130	1553.57051	-69.46204	662.83886	1535.05098	72.10876	362.78655	1473.83729	121.47516	334.44335	1297.59268	124.40491	132.50229	1314.76732	56.37406	135.69454	1338.14763	96.43317	97.85151	1538.58886	-72.00988	349.66130	1472.47131	-92.72400	84.34938	1444.59988	-29.46393	98.46839	1422.88820	-76.35012	120.28621	1504.68126	-45.53516	74.96388	1285.95279	79.63183	173.18094	1572.01797	-11.01255	386.18406	1435.42462	-35.52347	714.41950	1413.14510	7.72318	974.11416	1421.30789	32.80353	703.59847	1444.42154	14.15218	792.31831	1561.01872	-142.34006	458.46474	1462.64565	183.53227	463.05164	1526.58488	-145.35724	237.31301	1395.43480	184.12105	255.35853	
438	4.370	1558.45393	31.92086	969.34139	1527.83657	98.83482	644.09843	1561.91383	-71.50178	666.00366	1552.09976	72.02107	368.49134	1490.71024	120.52045	338.67978	1318.48837	120.92247	133.24862	1338.19234	53.19066	135.67526	1361.30658	95.06370	99.60882	1538.52833	-74.87680	351.20693	1472.79506	-92.67980	85.16885	1445.47638	-29.40134	99.63930	1423.25413	-76.11601	121.20081	1505.27224	-45.60620	75.41799	1307.43763	74.78568	172.60797	1572.74514	-13.87407	386.98062	1444.54976	-35.90931	717.94538	1422.67185	7.97749	977.16050	1431.29868	32.53978	707.10902	1453.85251	13.73822	795.48769	1564.20580	-144.90648	459.51254	1476.37274	182.74457	466.84121	1525.46631	-147.39113	237.95312	1411.59261	181.74291	259.06025	
439	4.380	1567.79995	32.16134	972.21089	1538.27853	97.36621	647.02569	1569.98128	-73.42742	668.90522	1569.21363	71.92850	374.36427	1507.82234	119.54871	342.93305	1340.35022	117.39558	133.50369	1362.36348	49.94901	135.45922	1385.36470	93.44169	101.11412	1538.63856	-77.33432	352.68040	1473.19166	-92.52715	86.04491	1446.46193	-29.20875	100.80230	1423.72459	-75.70534	122.16835	1505.95096	-45.59417	75.87066	1329.65783	70.05419	171.66394	1573.55652	-16.33700	387.73442	1453.37725	-36.17312	721.07668	1432.23338	8.16482	980.16222	1441.04356	32.40409	710.29973	1463.01950	13.23789	798.53361	1567.34768	-147.11055	460.43580	1490.18749	182.09534	470.45148	1524.47903	-149.12125	238.66766	1428.43502	179.36289	262.32347	
